# xmcd
#
# Track frame offsets: 
#        150
#        34589
#        51538
#        71298
#        95026
#        113122
#        139389
#        158272
#        179644
#        194595
#        207658
#        231441
#        242394
#        256406
#        283013
#        298548
#
# Disc length: 4308 seconds
#
# Revision: 1
# Processed by: cddbd v1.5.1PL0 Copyright (c) Steve Scherf et al.
# Submitted via: ExactAudioCopy v0.95a5
#
DISCID=f710d210
DTITLE=Divrese Artister - The Celtic Circle¶Ç©_2-2
DYEAR=2003
DGENRE=New Age
TTITLE0=The Mystic's Dream - Loreena McKennitt (from the movie ¡§THE M
TTITLE0=ISTS OF AVALON¡¨) 
TTITLE1=Runaway - The Corrs 
TTITLE2=Factory Girl - The Chieftains with Sinead O'Connor 
TTITLE3=I Will Find You (Theme From ¡¨THE LAST OF THE MOHICANS¡§) ¡V C
TTITLE3=lannad 
TTITLE4=Eirigh Suas A Stoirin - Maire Brennan
TTITLE5=The Fellowship (composition from the movie ?THE LORD OF THE RI
TTITLE5=NGS¡§) - Howard Shore 
TTITLE6=The Shores Of The Swilly - Phil Coulter with Sinead O'Connor 
TTITLE7=Circle Of Joy - Lisa Lynne 
TTITLE8=The Rose Of Tralee ¡V Nightnoise
TTITLE9=cuChulainn's Last Battle - Brian Dunning and Jeff Johnson 
TTITLE10=Our Farewell - Within Temptation 
TTITLE11=Evangeline - Karen Matheson 
TTITLE12=She Moved Through The Fair ¡V Anuna 
TTITLE13=Keening Of The Three Marys - William Coulter 
TTITLE14=The Dragon's Breath - David Arkenstone 
TTITLE15=O'Clock ¡V Vangelis 
EXTD=YEAR: 2003
EXTT0=
EXTT1=
EXTT2=
EXTT3=
EXTT4=
EXTT5=
EXTT6=
EXTT7=
EXTT8=
EXTT9=
EXTT10=
EXTT11=
EXTT12=
EXTT13=
EXTT14=
EXTT15=
PLAYORDER=
